<svg width="24" height="24" viewBox="0 0 24 24" fill="none" xmlns="http://www.w3.org/2000/svg">
<path fill-rule="evenodd" clip-rule="evenodd" d="M21.4538 4.24697C18.5448 3.7813 15.4324 3.97386 12.6316 4.83924V20C16.2831 18.9514 20.3485 18.9514 24 20L23.999 4.83817C23.1855 4.58702 22.3337 4.38823 21.4538 4.24697ZM11.3684 20V4.83819C7.75089 3.7206 3.61721 3.7206 0 4.83819V19.9989C3.65151 18.9514 7.71685 18.9515 11.3684 20ZM21.0455 7.10692C21.8548 7.29318 21.5723 8.53111 20.764 8.34485C19.1548 7.97233 17.476 7.97233 15.8668 8.34485C15.0596 8.53216 14.7759 7.29423 15.5852 7.10692C17.3908 6.68939 19.2411 6.68835 21.0455 7.10692ZM21.0455 11.0917C21.8548 11.278 21.5723 12.5159 20.764 12.3297C19.1548 11.9571 17.476 11.9571 15.8668 12.3297C15.0596 12.517 14.7759 11.279 15.5852 11.0917C17.3908 10.6742 19.2411 10.6721 21.0455 11.0917ZM21.0455 15.0755C21.8548 15.2617 21.5723 16.4996 20.764 16.3134C19.1548 15.9409 17.476 15.9409 15.8668 16.3134C15.0596 16.5007 14.7759 15.2628 15.5852 15.0755C17.3908 14.6579 19.2411 14.6558 21.0455 15.0755ZM8.41391 7.10692C9.2232 7.29318 8.94063 8.53111 8.13237 8.34485C6.52315 7.97233 4.84441 7.97233 3.23514 8.34485C2.42792 8.53216 2.14431 7.29423 2.9536 7.10692C4.75918 6.68939 6.60943 6.68835 8.41391 7.10692ZM8.41391 11.0917C9.2232 11.278 8.94063 12.5159 8.13237 12.3297C6.52315 11.9571 4.84441 11.9571 3.23514 12.3297C2.42792 12.517 2.14431 11.279 2.9536 11.0917C4.75918 10.6742 6.60943 10.6721 8.41391 11.0917ZM8.41391 15.0755C9.2232 15.2617 8.94063 16.4996 8.13237 16.3134C6.52315 15.9409 4.84441 15.9409 3.23514 16.3134C2.42792 16.5007 2.14431 15.2628 2.9536 15.0755C4.75918 14.6579 6.60943 14.6558 8.41391 15.0755Z" fill="white"/>
</svg>
