<svg width="30" height="30" viewBox="0 0 30 30" fill="none" xmlns="http://www.w3.org/2000/svg">
<path d="M15 3C8.37321 3 3 8.5125 3 15.3054C3 20.7429 6.43929 25.35 11.2071 26.9786C11.274 26.9931 11.3423 27.0003 11.4107 27C11.8554 27 12.0268 26.6732 12.0268 26.3893C12.0268 26.0946 12.0161 25.3232 12.0107 24.2946C11.6138 24.3877 11.2077 24.4362 10.8 24.4393C8.49107 24.4393 7.96607 22.6446 7.96607 22.6446C7.41964 21.225 6.63214 20.8446 6.63214 20.8446C5.5875 20.1107 6.62679 20.0893 6.70714 20.0893H6.7125C7.91786 20.1964 8.55 21.3643 8.55 21.3643C9.15 22.4143 9.95357 22.7089 10.6714 22.7089C11.1461 22.6994 11.6134 22.5899 12.0429 22.3875C12.15 21.5946 12.4607 21.0536 12.8036 20.7429C10.1411 20.4321 7.33929 19.3768 7.33929 14.6625C7.33929 13.3179 7.80536 12.2196 8.57143 11.3625C8.44821 11.0518 8.03571 9.79821 8.68929 8.10536C8.77695 8.08438 8.86706 8.07537 8.95714 8.07857C9.39107 8.07857 10.3714 8.24464 11.9893 9.36964C13.9551 8.81963 16.0342 8.81963 18 9.36964C19.6179 8.24464 20.5982 8.07857 21.0321 8.07857C21.1222 8.07537 21.2123 8.08438 21.3 8.10536C21.9536 9.79821 21.5411 11.0518 21.4179 11.3625C22.1839 12.225 22.65 13.3232 22.65 14.6625C22.65 19.3875 19.8429 20.4268 17.1696 20.7321C17.5982 21.1125 17.9839 21.8625 17.9839 23.0089C17.9839 24.6536 17.9679 25.9821 17.9679 26.3839C17.9679 26.6732 18.1339 27 18.5786 27C18.6505 27.0003 18.7224 26.9931 18.7929 26.9786C23.5661 25.35 27 20.7375 27 15.3054C27 8.5125 21.6268 3 15 3Z" fill="white"/>
</svg>
