<svg width="30" height="30" viewBox="0 0 30 30" fill="none" xmlns="http://www.w3.org/2000/svg">
<path d="M6 3C4.338 3 3 4.338 3 6V24C3 25.662 4.338 27 6 27H24C25.662 27 27 25.662 27 24V6C27 4.338 25.662 3 24 3H6ZM12.883 9.25C13.513 9.25 13.888 9.55 14.008 10.15L15.471 18.453C15.936 17.838 16.317 17.32 16.617 16.9C17.082 16.24 17.51 15.482 17.9 14.627C18.305 13.772 18.508 13.007 18.508 12.332C18.508 11.927 18.395 11.605 18.17 11.365C17.96 11.11 17.562 10.788 16.977 10.398C17.577 9.633 18.327 9.25 19.227 9.25C19.707 9.25 20.105 9.393 20.42 9.678C20.75 9.963 20.914 10.382 20.914 10.938C20.914 11.868 20.524 13.031 19.744 14.426C18.979 15.806 17.503 17.883 15.313 20.658L13.086 20.814L11.375 11.186H9.125V10.24C9.725 10.045 10.43 9.834 11.24 9.61C12.05 9.37 12.598 9.25 12.883 9.25Z" fill="white"/>
</svg>
