<svg width="30" height="30" viewBox="0 0 30 30" fill="none" xmlns="http://www.w3.org/2000/svg">
<path d="M12.5353 5.42998C10.8795 4.48138 8.56508 4.0167 5.46655 4.0002C5.17432 3.99544 4.88783 4.09768 4.64528 4.29331C4.44619 4.45478 4.28322 4.67247 4.1707 4.92725C4.05818 5.18203 3.99957 5.46608 4 5.75442V21.4874C4 22.551 4.63062 23.3533 5.46655 23.3533C8.72365 23.3533 11.9908 23.7184 13.9478 25.9379C13.9745 25.9684 14.0082 25.9888 14.0445 25.9965C14.0809 26.0043 14.1183 25.999 14.1522 25.9814C14.1861 25.9639 14.2149 25.9347 14.2351 25.8977C14.2553 25.8606 14.266 25.8172 14.2658 25.7729V7.23479C14.2659 7.10972 14.2436 6.98608 14.2004 6.87223C14.1573 6.75839 14.0942 6.65699 14.0156 6.57489C13.5673 6.11508 13.0694 5.72996 12.5353 5.42998ZM25.3529 4.29166C25.1102 4.09652 24.8237 3.99485 24.5316 4.0002C21.4331 4.0167 19.1187 4.47918 17.4629 5.42998C16.9288 5.72942 16.4307 6.11377 15.9821 6.57269C15.9037 6.65494 15.8408 6.75637 15.7977 6.87019C15.7546 6.98401 15.7323 7.10758 15.7324 7.23259V25.7718C15.7323 25.8144 15.7428 25.856 15.7624 25.8915C15.782 25.9269 15.8099 25.9546 15.8426 25.9712C15.8753 25.9877 15.9114 25.9922 15.9462 25.9842C15.981 25.9763 16.0132 25.9561 16.0385 25.9263C17.2149 24.5241 19.2796 23.3516 24.5335 23.3522C24.9224 23.3522 25.2954 23.1668 25.5705 22.8368C25.8455 22.5068 26 22.0592 26 21.5925V5.75497C26.0005 5.46606 25.9418 5.18144 25.8289 4.92623C25.7161 4.67102 25.5526 4.45308 25.3529 4.29166Z" fill="white"/>
</svg>
